# xmcd
#
# Track frame offsets:
#	150
#	17112
#	38413
#	57190
#	73359
#	93821
#	112814
#	136100
#	155273
#	177195
#	200993
#	220412
#	235937
#	248356
#
# Disc length: 3594 seconds
#
# Revision: 0
# Processed by: cddbd v1.5.1PL0 Copyright (c) Steve Scherf et al.
# Submitted via: EasyCDDAExtractor 8.2.1.1
#
DISCID=b60e080e
DTITLE=Keith Urban - Be Here
DYEAR=1900
DGENRE=Country
TTITLE0=Days Go by 
TTITLE1=Better Life
TTITLE2=Making Memories of Us
TTITLE3=God's Been Good to Me
TTITLE4=The Hard Way
TTITLE5=You're My Better Half
TTITLE6=I Could Fly
TTITLE7=Tonight I Wanna Cry
TTITLE8=She's Gotta Be
TTITLE9=Nobody Drinks Alone
TTITLE10=Country Comfort
TTITLE11=Live to Love Another Day
TTITLE12=These Are the Days
TTITLE13=You (or Somebody Like You)
EXTD=
EXTT0=
EXTT1=
EXTT2=
EXTT3=
EXTT4=
EXTT5=
EXTT6=
EXTT7=
EXTT8=
EXTT9=
EXTT10=
EXTT11=
EXTT12=
EXTT13=
PLAYORDER=
